<svg width="166" height="26" viewBox="0 0 166 26" fill="none" xmlns="http://www.w3.org/2000/svg">
<g clip-path="url(#clip0_2_275)">
<path d="M136.757 3.0134C136.723 3.53626 136.536 4.03768 136.22 4.45599C135.904 4.87431 135.472 5.19126 134.978 5.36779C134.483 5.54432 133.948 5.57271 133.438 5.44954C132.928 5.32636 132.465 5.05699 132.106 4.67452C131.747 4.29206 131.508 3.8132 131.418 3.29692C131.329 2.78064 131.392 2.24946 131.601 1.76875C131.81 1.28804 132.155 0.878811 132.594 0.591381C133.033 0.303951 133.547 0.150852 134.072 0.151001C134.808 0.176013 135.504 0.491447 136.007 1.02804C136.511 1.56464 136.78 2.27862 136.757 3.0134Z" fill="#E94932"/>
<path d="M9.89691 0.528076C15.6941 0.528076 18.4869 2.71302 18.4869 7.15926C18.5218 8.25908 18.2095 9.34205 17.5942 10.2551C16.9788 11.1681 16.0915 11.8649 15.0578 12.2472C16.3578 12.6193 17.4957 13.415 18.29 14.5075C19.0843 15.6001 19.4894 16.9266 19.4407 18.2757C19.4407 23.2483 16.4721 25.5485 9.82531 25.5485H0V0.531348L9.89691 0.528076ZM5.58562 10.7023H8.979C11.4886 10.7023 12.7223 9.68536 12.7223 7.76358C12.8281 5.76708 11.8743 4.82489 9.61209 4.82489H5.584L5.58562 10.7023ZM9.40214 21.2533C12.0892 21.2533 13.4709 20.2787 13.4709 17.9378C13.5767 15.6391 12.1982 14.5458 9.47702 14.5458H5.58887V21.2533H9.40214Z" fill="white"/>
<path d="M26.1608 25.5484H20.79V0.264771H26.1608V25.5484Z" fill="white"/>
<path d="M27.5098 16.6916C27.5098 11.1147 31.0431 7.38489 36.523 7.38489C42.0028 7.38489 45.5003 11.1212 45.5003 16.6916C45.5872 17.9122 45.4131 19.1372 44.9895 20.2854C44.5659 21.4337 43.9026 22.4789 43.0434 23.3518C42.1843 24.2247 41.1491 24.9052 40.0064 25.3483C38.8637 25.7915 37.6397 25.987 36.4155 25.922C30.9406 25.9236 27.5098 22.2311 27.5098 16.6916ZM40.0221 16.8411V16.5779C40.0221 13.2997 38.7494 11.529 36.4871 11.529C34.2607 11.529 32.988 13.2997 32.988 16.5779V16.8411C32.988 20.0901 34.2249 21.7779 36.4513 21.7779C38.7136 21.7779 40.0221 20.0511 40.0221 16.8411Z" fill="white"/>
<path d="M46.8496 16.6169C46.8496 11.1164 50.3488 7.3849 55.6854 7.3849C57.5027 7.2402 59.3113 7.75506 60.7788 8.83483C62.2463 9.9146 63.2741 11.4867 63.6732 13.2623L58.7256 14.6561C58.3366 12.9602 57.5863 11.6411 55.7212 11.6411C53.5631 11.6411 52.292 13.5255 52.292 16.5389V16.7647C52.292 19.8172 53.4589 21.6626 55.6138 21.6626C57.6286 21.6626 58.5124 20.4572 58.8688 18.4591L63.8181 19.7034C63.462 21.5679 62.427 23.2347 60.9127 24.3826C59.3984 25.5306 57.512 26.0784 55.617 25.9204C50.1014 25.9236 46.8496 22.3059 46.8496 16.6169Z" fill="white"/>
<path d="M70.2893 15.1857L75.6975 7.76342H81.5305L75.9107 14.3572L81.8137 25.5484H76.1174L72.3367 18.2381L70.286 20.8763V25.5484H65.021V0.264771H70.286L70.2893 15.1857Z" fill="white"/>
<path d="M82.8779 17.4081H88.0746C88.6051 20.3094 90.0894 21.5911 93.3428 21.5911C95.7467 21.5911 97.1236 20.454 97.1236 18.5387C97.1236 16.6933 94.6823 16.2027 91.6437 15.5236C87.8272 14.6188 83.4443 13.1876 83.4443 8.13867C83.4443 3.35292 87.3324 0 92.7407 0C98.6778 0 102.107 3.20348 102.602 8.55456H97.4767C97.4713 7.9593 97.3388 7.37204 97.0879 6.83196C96.8371 6.29188 96.4738 5.81139 96.0222 5.42258C95.5706 5.03377 95.041 4.74558 94.469 4.57721C93.897 4.40885 93.2956 4.36421 92.7049 4.44623C90.4784 4.44623 89.1357 5.58334 89.1357 7.42389C89.1357 9.49512 91.8569 9.87366 94.9329 10.5511C98.7152 11.3796 102.815 12.6986 102.815 17.8239C102.815 22.7981 99.2816 26 93.4844 26C86.976 25.9983 83.5143 22.457 82.8779 17.4081Z" fill="white"/>
<path d="M109.501 10.6632C109.854 9.64732 110.527 8.77237 111.418 8.16831C112.31 7.56425 113.372 7.26328 114.449 7.3102C115.54 7.26749 116.611 7.61646 117.467 8.29383C118.323 8.9712 118.907 9.93218 119.115 11.0027C119.495 9.85772 120.248 8.87244 121.253 8.20341C122.259 7.53438 123.459 7.21997 124.665 7.3102C128.022 7.3102 130.035 9.87205 130.035 14.6578V25.5419H124.665V15.1127C124.665 12.9277 123.887 11.9108 122.331 11.9108C120.599 11.9108 119.785 13.1535 119.785 15.6033V25.55H114.414V14.9989C114.414 12.9261 113.638 11.9124 112.082 11.9124C110.564 11.9124 109.537 13.0496 109.537 15.6049V25.5516H104.166V7.76184H109.504L109.501 10.6632Z" fill="white"/>
<path d="M131.384 7.76184H136.757V25.5468H131.384V7.76184Z" fill="white"/>
<path d="M144.54 25.5484C141.076 25.2836 140.404 23.5892 140.334 20.4247V11.7955H138.106V7.76343H140.334V4.29681L145.601 1.54492V7.76343H148.605V11.7955H145.567V20.1957C145.541 20.3484 145.55 20.505 145.595 20.6532C145.64 20.8015 145.718 20.9374 145.824 21.0505C145.93 21.1635 146.061 21.2506 146.206 21.305C146.352 21.3593 146.508 21.3794 146.662 21.3637H148.499V25.5468L144.54 25.5484Z" fill="white"/>
<path d="M155.255 10.7395C155.603 9.72679 156.269 8.8533 157.154 8.24911C158.04 7.64493 159.097 7.34238 160.168 7.38655C163.808 7.38655 166 9.94834 166 14.8462V25.5467H160.629V15.2231C160.629 13.0382 159.885 11.9075 158.084 11.9075C156.316 11.9075 155.257 13.415 155.257 16.2027V25.5484H149.954V0.264771H155.257L155.255 10.7395Z" fill="white"/>
</g>
<defs>
<clipPath id="clip0_2_275">
<rect width="166" height="26" fill="white"/>
</clipPath>
</defs>
</svg>
